<svg width="9" height="9" viewBox="0 0 9 9" fill="none" xmlns="http://www.w3.org/2000/svg">
<path fill-rule="evenodd" clip-rule="evenodd" d="M6.08013 7.62074C6.02952 7.62074 5.97859 7.60889 5.93183 7.58455L4.29858 6.73125L2.66565 7.58455C2.55739 7.6406 2.4267 7.63099 2.32869 7.55924C2.23003 7.48749 2.18103 7.3661 2.20185 7.24598L2.51286 5.44329L1.1932 4.16687C1.10543 4.08199 1.07372 3.9545 1.1112 3.83791C1.14868 3.72196 1.24893 3.63708 1.37001 3.61978L3.19576 3.35457L4.0119 1.71267C4.12017 1.49486 4.47731 1.49486 4.58557 1.71267L5.40172 3.35457L7.22747 3.61978C7.34854 3.63708 7.4488 3.72196 7.48628 3.83791C7.52375 3.9545 7.49204 4.08199 7.40428 4.16687L6.08461 5.44329L6.39563 7.24598C6.41645 7.3661 6.36712 7.48749 6.26879 7.55924C6.21306 7.60024 6.14675 7.62074 6.08013 7.62074Z" fill="black"/>
<mask id="mask0" mask-type="alpha" maskUnits="userSpaceOnUse" x="1" y="1" width="7" height="7">
<path fill-rule="evenodd" clip-rule="evenodd" d="M6.08013 7.62074C6.02952 7.62074 5.97859 7.60889 5.93183 7.58455L4.29858 6.73125L2.66565 7.58455C2.55739 7.6406 2.4267 7.63099 2.32869 7.55924C2.23003 7.48749 2.18103 7.3661 2.20185 7.24598L2.51286 5.44329L1.1932 4.16687C1.10543 4.08199 1.07372 3.9545 1.1112 3.83791C1.14868 3.72196 1.24893 3.63708 1.37001 3.61978L3.19576 3.35457L4.0119 1.71267C4.12017 1.49486 4.47731 1.49486 4.58557 1.71267L5.40172 3.35457L7.22747 3.61978C7.34854 3.63708 7.4488 3.72196 7.48628 3.83791C7.52375 3.9545 7.49204 4.08199 7.40428 4.16687L6.08461 5.44329L6.39563 7.24598C6.41645 7.3661 6.36712 7.48749 6.26879 7.55924C6.21306 7.60024 6.14675 7.62074 6.08013 7.62074Z" fill="white"/>
</mask>
<g mask="url(#mask0)">
<rect x="0.455017" y="0.894043" width="7.68738" height="7.68738" fill="#EBEBEB"/>
</g>
</svg>
